<?xml version="1.0" standalone="no"?>
<!DOCTYPE svg PUBLIC "-//W3C//DTD SVG 20010904//EN"
 "http://www.w3.org/TR/2001/REC-SVG-20010904/DTD/svg10.dtd">
<svg version="1.0" xmlns="http://www.w3.org/2000/svg"
 width="512.000000pt" height="512.000000pt" viewBox="0 0 512.000000 512.000000"
 preserveAspectRatio="xMidYMid meet">
<metadata>
Created by potrace 1.16, written by Peter Selinger 2001-2019
</metadata>
<g transform="translate(0.000000,512.000000) scale(0.100000,-0.100000)"
fill="#000000" stroke="none">
<path d="M2512 4097 c-26 -15 -101 -120 -128 -180 -17 -37 -17 -42 -1 -87 24
-67 22 -73 -19 -45 -48 33 -59 32 -101 -10 -32 -32 -35 -39 -32 -87 1 -29 -3
-66 -10 -83 -18 -43 -7 -69 49 -116 30 -26 59 -61 71 -88 11 -25 29 -55 40
-67 12 -12 24 -46 30 -84 5 -35 14 -71 19 -80 6 -12 2 -30 -12 -60 -19 -39
-20 -47 -9 -89 26 -93 29 -111 18 -118 -11 -7 -83 70 -93 100 -3 9 -13 17 -21
17 -9 0 -25 8 -36 18 -19 17 -19 16 -6 -6 8 -12 23 -25 34 -28 16 -4 90 -95
104 -127 2 -5 25 -41 52 -80 26 -39 46 -73 44 -75 -5 -6 -135 90 -135 99 0 15
-141 194 -153 194 -6 0 -13 -10 -15 -22 -6 -42 -32 -18 -32 29 0 13 -45 64
-127 142 -124 120 -141 146 -91 146 14 0 64 -42 138 -115 159 -158 174 -155
159 25 -9 114 -20 188 -31 206 -4 5 -31 27 -62 49 -36 26 -56 47 -56 60 0 23
-26 64 -52 83 -10 7 -18 18 -18 24 0 5 -9 23 -21 39 -36 50 -93 37 -123 -30
-23 -51 -12 -90 31 -111 19 -9 34 -25 38 -40 16 -68 47 -127 76 -144 24 -14
28 -22 23 -39 -6 -21 -6 -21 20 2 32 30 33 41 0 71 -18 18 -23 31 -19 48 4 18
-1 29 -20 44 -14 11 -23 24 -19 29 3 6 0 16 -6 24 -16 19 -9 56 13 69 15 9 22
7 38 -13 10 -13 19 -36 19 -51 0 -20 9 -35 29 -50 26 -18 29 -25 24 -54 -3
-19 2 -67 10 -108 23 -108 27 -138 21 -138 -4 0 -31 23 -62 51 -31 28 -76 61
-100 72 -41 21 -45 21 -73 5 l-30 -18 -29 47 c-17 26 -30 49 -30 52 0 4 -20
19 -44 34 -38 24 -49 39 -76 105 -17 42 -35 87 -40 99 -20 49 -96 38 -128 -17
-20 -34 -31 -36 -95 -14 -45 15 -48 15 -83 -7 -41 -25 -94 -101 -94 -135 0
-12 14 -53 30 -90 l31 -67 -33 -34 c-27 -28 -34 -44 -39 -96 -4 -34 -10 -81
-14 -104 -7 -37 -4 -45 18 -65 23 -22 184 -81 255 -95 l34 -6 -58 -58 c-71
-72 -57 -78 22 -9 31 28 66 50 77 50 12 0 56 -10 99 -21 l78 -21 -57 -40 c-78
-54 -78 -55 -63 -73 12 -14 11 -16 -12 -10 -26 7 -66 -8 -80 -29 -4 -6 -8 -25
-8 -43 0 -29 3 -33 38 -38 63 -11 145 -33 185 -50 l39 -16 -78 -54 c-43 -30
-125 -75 -183 -99 -59 -24 -153 -67 -211 -95 -58 -28 -113 -51 -122 -51 -18 0
-48 36 -48 57 0 17 78 56 117 58 41 3 63 21 63 51 0 23 33 54 58 54 7 0 24
-11 38 -25 26 -26 26 -26 75 -10 37 13 56 27 84 65 19 26 35 50 35 52 0 2 -15
5 -33 6 -19 1 -49 7 -67 12 -18 5 -43 7 -55 4 -25 -6 -60 28 -51 51 9 25 36
29 68 11 42 -25 44 -15 2 13 -29 20 -38 22 -59 13 -33 -15 -60 -72 -51 -106 7
-30 30 -42 96 -51 25 -3 52 -10 60 -15 13 -8 13 -11 0 -24 -22 -21 -72 -23
-100 -3 -43 30 -89 17 -131 -37 -12 -15 -50 -41 -84 -56 -113 -51 -153 -147
-74 -182 20 -9 27 -17 22 -28 -4 -8 -7 -33 -7 -55 -1 -34 3 -42 27 -53 23 -11
32 -11 60 3 17 9 56 19 85 22 l53 6 -7 -42 c-8 -50 11 -77 61 -87 l32 -6 -28
-29 c-28 -31 -33 -51 -45 -226 l-6 -92 32 -19 c27 -17 46 -20 122 -17 78 3 94
7 124 30 40 31 48 44 64 113 19 81 106 186 279 336 48 42 58 40 71 -20 15 -67
6 -81 -81 -121 -103 -47 -143 -106 -106 -155 17 -22 37 -25 65 -9 33 18 38 8
13 -26 -12 -16 -24 -51 -27 -79 -6 -46 -4 -53 17 -68 13 -9 30 -16 38 -16 22
0 81 49 81 67 0 9 24 38 53 64 32 30 46 49 36 49 -12 0 -19 18 -28 74 -7 41
-14 76 -17 79 -3 2 -42 -17 -87 -44 -45 -27 -88 -49 -95 -49 -17 0 -32 42 -20
57 16 20 158 74 178 68 10 -3 22 -1 26 6 4 6 20 73 35 148 18 85 34 140 44
147 9 7 37 15 63 19 26 3 57 9 70 12 32 8 60 -56 78 -182 5 -35 2 -46 -21 -73
-32 -38 -35 -90 -10 -161 24 -69 20 -83 -45 -150 -66 -68 -78 -96 -62 -147 9
-32 8 -34 -24 -53 -34 -21 -84 -89 -84 -116 0 -30 20 -53 56 -65 35 -12 37
-11 75 26 l39 38 0 -47 c0 -28 8 -62 20 -84 11 -21 20 -51 20 -66 0 -52 28
-96 69 -108 32 -10 43 -8 77 9 54 27 61 38 69 102 6 44 14 63 44 95 114 123
125 156 72 217 -37 43 -47 64 -54 114 -6 36 -3 44 22 68 18 18 31 24 36 17 3
-6 19 -18 36 -26 26 -14 31 -14 53 0 14 9 29 30 35 47 11 31 9 33 -72 113 -85
82 -97 104 -97 177 0 19 -12 45 -31 69 -27 35 -31 47 -33 116 -5 122 -5 122
92 58 93 -63 110 -89 93 -146 -6 -20 -11 -45 -11 -57 0 -29 67 -199 92 -233
19 -25 20 -34 11 -79 -9 -44 -8 -54 9 -75 27 -34 60 -31 103 9 29 28 35 39 29
60 -4 16 -1 32 7 42 12 15 8 21 -28 53 -23 20 -47 50 -53 66 -10 26 -13 28
-21 13 -17 -30 -25 -20 -44 50 -10 37 -26 84 -36 106 -14 30 -16 43 -7 60 14
28 13 27 31 20 17 -6 26 -34 47 -136 9 -47 17 -62 43 -79 l32 -22 -28 30 c-16
17 -30 46 -34 69 l-6 39 34 -30 c65 -58 171 -170 184 -196 13 -25 12 -28 -15
-55 -35 -35 -40 -89 -12 -144 22 -44 43 -48 86 -15 l34 26 7 -29 c9 -44 54
-81 105 -88 38 -5 50 -2 79 20 34 25 35 26 55 7 45 -40 64 -44 104 -20 66 40
72 48 72 103 0 58 -17 89 -61 111 -35 19 -39 45 -6 45 29 0 97 68 97 98 0 27
-39 53 -76 50 -22 -1 -41 9 -82 47 -48 44 -52 52 -46 79 3 17 12 41 18 54 l12
23 19 -21 c10 -11 67 -36 132 -57 l113 -36 43 18 c63 28 87 53 87 92 0 19 -5
43 -10 53 -7 13 -7 28 0 46 18 46 -3 76 -88 127 -42 25 -86 47 -97 49 -11 1
-28 15 -37 30 -30 47 -62 47 -154 -1 l-81 -43 -114 37 c-176 56 -355 123 -452
168 l-88 42 26 22 c14 13 33 23 42 23 8 0 54 -18 101 -40 79 -37 111 -46 80
-23 -22 16 -154 73 -170 73 -9 0 -18 7 -22 15 -4 10 1 15 16 15 12 0 56 10 97
21 69 20 91 21 241 15 133 -6 169 -4 184 7 25 18 17 29 -49 66 -30 17 -55 33
-55 36 0 3 30 5 68 5 65 0 69 -2 121 -44 72 -59 94 -64 138 -30 41 31 50 50
35 74 -9 16 -6 18 31 24 80 13 113 26 145 57 18 18 32 42 32 55 0 35 -34 64
-73 64 -38 0 -66 24 -82 72 -5 17 -23 40 -38 52 -27 20 -29 20 -75 3 -83 -32
-90 -32 -52 4 122 112 160 150 160 158 0 5 -11 23 -25 39 l-25 30 26 16 c57
38 83 126 47 158 -48 42 -87 32 -170 -44 l-58 -53 -3 32 c-4 40 -45 76 -76 67
-30 -9 -48 -27 -70 -71 -11 -21 -31 -53 -44 -71 -30 -41 -160 -126 -219 -142
-26 -8 -64 -31 -94 -57 -55 -50 -56 -49 -36 54 9 46 19 66 38 82 15 11 29 33
32 48 4 15 29 54 57 87 l50 58 -20 34 c-27 43 -14 77 28 72 35 -4 38 -22 17
-116 -16 -70 -22 -81 -67 -125 -52 -51 -55 -64 -15 -53 52 13 67 36 93 150 13
60 22 117 19 127 -3 9 -19 22 -36 29 -39 17 -69 2 -105 -54 -15 -23 -93 -104
-173 -181 -80 -77 -174 -168 -208 -202 -40 -41 -64 -59 -69 -51 -4 6 -6 64 -5
127 l3 116 36 45 c37 45 37 45 40 17 2 -14 -4 -37 -12 -49 -11 -15 -15 -42
-15 -78 l2 -55 6 55 c3 30 14 66 24 80 11 17 15 35 11 55 -5 29 1 37 90 119
77 70 96 93 96 115 0 39 -33 66 -81 65 -34 -1 -39 1 -39 22 0 23 -42 64 -66
64 -8 0 -14 10 -14 24 0 13 -9 34 -19 48 -11 13 -22 40 -26 60 -4 20 -15 44
-25 53 -24 22 -80 28 -108 12z m98 -27 c11 -11 20 -33 20 -51 0 -19 8 -37 21
-47 12 -10 23 -34 26 -58 4 -35 8 -41 24 -37 26 7 49 -14 49 -43 0 -32 -35
-67 -60 -59 -11 4 -27 -3 -43 -17 -23 -21 -26 -33 -31 -128 -4 -72 -3 -100 4
-90 5 8 10 11 10 7 0 -5 -9 -20 -19 -33 -16 -20 -20 -21 -25 -8 -3 9 -6 121
-6 250 0 232 -5 265 -31 197 -5 -14 -10 -241 -10 -536 -1 -291 -5 -517 -10
-523 -12 -15 16 -38 37 -30 14 5 16 28 12 186 -1 99 -2 180 -1 180 1 0 14 -16
29 -35 25 -34 26 -38 25 -162 -1 -70 0 -125 3 -122 2 2 6 60 7 129 l2 125 221
225 c121 124 228 225 236 225 32 0 23 -46 -18 -89 -21 -22 -49 -58 -61 -79
-13 -20 -31 -42 -42 -47 -15 -8 -19 -22 -19 -60 0 -102 -32 -210 -61 -210 -11
0 -19 1 -19 3 0 4 56 245 65 280 4 15 3 27 -2 27 -39 0 -92 -152 -100 -282 -6
-92 -23 -128 -61 -128 -10 0 -33 -16 -52 -35 -19 -19 -40 -35 -46 -35 -7 0
-14 -15 -16 -32 -2 -24 -8 -33 -22 -33 -13 0 -27 -22 -53 -88 -20 -49 -39 -85
-43 -80 -4 4 -21 44 -38 89 -26 66 -32 95 -32 160 0 53 -5 86 -14 100 -13 18
-12 25 15 66 l30 47 -20 20 c-16 16 -21 34 -21 77 0 47 -5 62 -29 93 -16 20
-37 56 -46 79 -10 23 -32 52 -53 68 -21 15 -52 41 -69 57 l-33 31 22 23 c12
13 27 23 33 23 14 0 84 -73 107 -111 8 -13 20 -49 27 -80 8 -37 21 -64 38 -80
l26 -24 -7 245 -7 245 -30 23 c-32 26 -38 64 -13 84 43 35 54 50 54 70 0 54
79 79 120 38z m248 -282 c23 -23 11 -46 -45 -89 -32 -23 -80 -62 -108 -85
l-50 -42 5 80 c5 87 19 108 70 108 15 0 35 9 45 20 20 22 64 27 83 8z m-475
-34 c46 -36 47 -38 47 -91 l0 -55 -62 53 c-91 76 -100 87 -88 110 16 29 52 23
103 -17z m-393 -74 c24 -24 26 -53 4 -74 -29 -29 -68 -11 -79 35 -5 21 -1 30
16 43 30 21 35 20 59 -4z m-332 -42 c5 -7 24 -50 42 -96 21 -55 40 -88 57
-100 67 -45 144 -149 140 -190 -1 -12 -3 -22 -5 -22 -3 0 -54 46 -114 101 -93
88 -113 112 -142 173 -18 39 -40 77 -49 85 -20 16 -22 32 -5 49 16 16 63 15
76 0z m-188 -53 c14 -8 37 -14 52 -15 33 0 53 -32 63 -102 10 -65 39 -108 128
-183 42 -37 77 -70 77 -74 0 -5 18 -21 40 -36 22 -15 38 -31 35 -35 -2 -3 1
-7 8 -7 15 0 178 -122 233 -174 23 -21 45 -39 49 -39 4 0 22 -12 40 -27 17
-16 53 -41 80 -56 32 -19 45 -31 38 -38 -7 -7 -41 3 -106 30 -93 40 -154 54
-130 30 14 -14 212 -100 238 -104 11 -1 23 -3 26 -4 4 0 10 -8 13 -17 5 -14 1
-16 -34 -10 -22 3 -40 2 -40 -2 0 -5 46 -16 102 -25 143 -24 146 -32 17 -48
-46 -5 -91 -16 -99 -24 -18 -16 -44 -5 -61 26 -9 17 -7 25 11 41 l22 21 -104
40 c-56 22 -111 46 -121 52 -12 9 -29 10 -50 5 -18 -5 -81 -11 -141 -15 -59
-3 -114 -9 -122 -12 -32 -12 -10 14 34 41 l47 28 66 -17 c74 -19 112 -17 117
5 3 19 -347 140 -405 140 -42 0 -231 60 -269 85 -31 20 -39 51 -20 80 22 34
52 31 90 -8 21 -23 64 -47 135 -75 56 -23 109 -42 116 -42 8 0 74 -25 148 -55
74 -30 153 -57 177 -61 42 -7 43 -6 37 17 -4 13 -7 29 -7 34 0 6 -4 4 -9 -3
-9 -14 -17 -6 -124 126 -48 60 -66 74 -115 92 -62 23 -146 67 -289 150 -88 50
-93 55 -93 86 0 18 -9 49 -21 69 -27 45 -20 76 23 104 38 24 63 26 98 6z
m2260 -15 c31 -31 24 -54 -29 -96 -120 -95 -267 -233 -303 -286 -44 -66 -163
-165 -250 -209 -96 -48 -85 -66 19 -29 68 24 223 120 223 138 0 7 19 47 41 88
35 63 58 89 131 150 74 62 92 73 108 64 22 -12 36 -50 23 -59 -5 -3 -48 -37
-96 -74 -63 -50 -87 -75 -87 -91 0 -12 -14 -35 -31 -52 -17 -16 -36 -42 -43
-59 -10 -24 -28 -36 -84 -60 -40 -16 -82 -37 -94 -47 -21 -15 -20 -16 27 -7
84 16 185 47 304 94 l113 45 29 -21 c16 -11 29 -22 29 -24 0 -3 -102 -34 -165
-51 -16 -4 -23 -9 -15 -11 14 -3 190 44 232 61 11 5 24 0 37 -13 25 -25 26
-31 7 -57 -11 -14 -27 -19 -63 -20 -26 0 -81 -7 -121 -15 -67 -12 -77 -12
-105 4 l-32 17 33 -27 c114 -97 106 -88 88 -106 -10 -9 -22 -17 -28 -17 -5 0
-43 32 -83 71 l-73 70 -113 -21 c-245 -45 -288 -57 -275 -79 9 -14 39 -14 124
1 64 11 71 10 98 -9 16 -11 49 -30 72 -42 24 -12 42 -24 40 -27 -3 -2 -51 5
-109 15 -57 11 -138 20 -179 22 -67 2 -87 -3 -187 -41 l-112 -42 16 -25 c15
-22 14 -25 -3 -38 -11 -9 -31 -13 -49 -10 -16 2 -64 7 -105 11 -41 4 -81 10
-89 14 -15 8 78 33 169 46 30 4 47 9 38 12 -18 4 -26 32 -9 32 5 0 58 24 118
53 98 47 105 52 75 55 -23 2 -54 -8 -108 -37 -83 -45 -94 -48 -94 -27 0 13 -5
13 -37 -1 -21 -8 -56 -28 -78 -43 -22 -15 -51 -33 -64 -40 -23 -12 -23 -10 7
27 17 22 38 46 46 53 12 9 13 17 6 31 -8 14 1 34 47 98 33 47 64 81 74 81 10
0 31 11 47 24 16 15 37 23 48 21 14 -4 30 11 64 56 58 79 121 136 209 188 39
23 74 48 78 55 4 7 26 23 48 34 54 27 91 68 110 122 22 61 55 78 89 44 16 -16
22 -64 9 -64 -25 0 -553 -483 -553 -505 0 -7 -12 -21 -27 -31 -16 -10 -22 -19
-15 -22 21 -7 144 91 337 267 55 51 143 124 195 163 140 105 210 168 210 187
0 42 56 55 90 21z m-1501 -266 c24 -202 24 -196 4 -192 -12 2 -19 14 -21 33
-8 72 -40 282 -47 300 -5 15 1 12 23 -11 26 -27 30 -42 41 -130z m-711 -80
c108 -66 122 -78 117 -97 -5 -16 -4 -18 3 -8 8 12 21 9 75 -14 54 -22 74 -38
116 -91 29 -35 50 -64 47 -64 -5 0 -68 27 -141 60 -27 12 -68 35 -90 50 -22
15 -87 51 -145 80 -158 79 -194 112 -158 148 23 23 54 12 176 -64z m442 -49
c13 -14 21 -25 18 -25 -2 0 -15 11 -28 25 -13 14 -21 25 -18 25 2 0 15 -11 28
-25z m1731 -24 l24 -19 -30 -12 c-68 -26 -228 -80 -237 -80 -14 0 24 60 47 73
36 21 130 56 151 56 12 1 32 -8 45 -18z m-1671 -36 c13 -14 21 -25 18 -25 -2
0 -15 11 -28 25 -13 14 -21 25 -18 25 2 0 15 -11 28 -25z m30 -410 c46 -14 96
-25 112 -25 42 0 28 -13 -49 -44 -89 -35 -122 -60 -105 -77 10 -11 12 -10 12
3 0 9 27 27 72 47 l72 33 18 -24 c9 -13 18 -26 18 -30 0 -4 -32 -24 -72 -44
-63 -32 -74 -34 -95 -23 -26 14 -27 14 -221 -58 -52 -19 -95 -33 -97 -31 -2 2
32 23 75 48 86 47 149 94 139 104 -3 4 -18 2 -31 -3 -14 -5 -29 -6 -34 -1 -5
4 -63 29 -129 55 -66 26 -124 50 -128 54 -4 4 -1 14 8 21 12 10 21 10 41 1 14
-6 23 -7 19 -2 -6 11 51 16 201 19 72 2 108 -3 174 -23z m524 -158 c9 -32 20
-55 25 -53 12 8 37 -24 44 -55 4 -14 25 -47 48 -72 48 -55 48 -78 0 -43 -19
14 -37 23 -42 21 -11 -8 -22 33 -15 60 4 15 0 30 -12 42 -9 10 -14 14 -10 8 4
-6 8 -77 9 -159 l2 -148 -32 -31 -32 -32 10 28 c14 35 14 287 1 307 -7 11 -12
12 -20 4 -7 -7 -10 -64 -8 -167 l3 -155 -27 31 c-21 25 -27 43 -28 82 -1 82
-11 125 -29 125 -11 0 -5 11 20 34 32 29 34 35 22 51 -11 16 -11 22 2 41 8 12
19 52 26 89 6 37 15 63 19 58 4 -4 15 -34 24 -66z m-110 51 c-4 -7 -17 -29
-29 -48 -12 -19 -28 -53 -35 -75 -7 -22 -24 -62 -37 -89 -13 -26 -20 -45 -15
-42 5 3 15 19 22 36 14 33 37 40 47 13 8 -19 -35 -103 -52 -103 -7 0 -18 7
-25 15 -11 13 -15 12 -37 -5 -31 -24 -46 -25 -63 -5 -11 13 -3 32 49 117 77
128 78 132 8 103 -38 -16 -109 -19 -142 -6 -21 8 -25 5 58 55 14 8 29 11 37 6
7 -4 26 -3 43 2 22 8 31 8 37 -3 7 -10 20 -7 67 13 67 30 77 33 67 16z m249
-23 c48 -24 64 -29 48 -15 -20 18 -21 20 -5 19 32 -1 168 -55 172 -69 4 -10
-6 -12 -40 -7 -24 3 -53 9 -63 12 -11 4 7 -9 40 -28 33 -19 80 -38 105 -42 54
-9 197 -60 224 -80 17 -13 18 -18 7 -41 -15 -33 1 -89 31 -105 17 -9 25 -6 50
17 26 25 28 33 22 68 -6 35 -4 38 12 32 11 -4 69 -25 129 -46 61 -21 166 -58
235 -83 69 -25 135 -48 148 -52 36 -10 26 13 -15 38 l-38 22 30 6 c29 6 26 8
-45 41 -41 19 -112 48 -157 64 -46 16 -83 32 -83 36 0 13 103 68 127 68 28 0
56 -28 50 -51 -4 -15 1 -18 28 -17 22 1 55 -13 105 -43 88 -53 99 -67 83 -109
-10 -25 -9 -36 5 -60 23 -40 8 -84 -31 -88 -15 -2 -98 20 -184 49 l-157 52
-18 -23 c-10 -12 -22 -40 -28 -61 -11 -40 -4 -109 11 -109 4 0 34 -23 66 -51
32 -27 59 -45 61 -40 5 16 47 13 61 -3 26 -31 -25 -69 -54 -39 -11 11 -19 12
-28 4 -24 -19 -100 45 -182 155 -54 73 -66 81 -167 108 -42 12 -75 32 -130 77
-106 90 -176 135 -189 122 -17 -17 3 -44 113 -147 69 -64 117 -101 145 -111
24 -8 63 -22 87 -30 35 -13 52 -28 86 -78 24 -34 59 -82 79 -107 l35 -45 -44
40 c-52 47 -119 90 -126 82 -3 -3 8 -13 25 -22 18 -9 56 -37 85 -64 53 -48
139 -111 151 -111 24 0 75 -36 85 -61 36 -87 -45 -153 -91 -74 -12 19 -33 40
-47 47 -14 7 -29 24 -32 37 -6 24 -155 150 -165 139 -3 -3 11 -37 32 -76 36
-68 40 -71 77 -74 49 -4 76 -36 51 -62 -34 -34 -99 -32 -135 4 -10 10 -35 69
-55 131 -32 99 -42 119 -93 176 -100 113 -282 275 -300 268 -34 -13 -37 -9
-42 50 -4 53 -8 60 -29 65 -35 8 -153 176 -146 208 4 16 -3 35 -23 60 -35 45
-45 62 -37 62 3 0 38 -16 78 -35z m-223 -75 c9 -17 6 -24 -16 -45 -24 -23 -54
-33 -54 -20 0 15 42 85 50 85 5 0 14 -9 20 -20z m-315 -74 c14 -10 19 -29 22
-80 3 -56 0 -69 -17 -83 -26 -22 -26 -37 0 -30 11 3 20 2 20 -2 0 -11 -154
-136 -167 -136 -7 0 -60 -42 -118 -93 -73 -64 -105 -100 -105 -115 0 -12 -11
-32 -24 -44 -12 -12 -33 -53 -45 -90 -37 -114 -36 -113 -146 -113 -91 0 -95 1
-112 26 -15 23 -15 30 -3 58 8 17 15 65 15 111 0 44 4 86 8 93 5 6 29 17 55
24 35 9 58 23 89 57 23 25 72 79 109 119 37 39 65 74 62 77 -9 9 -94 -67 -139
-125 -49 -63 -57 -70 -76 -63 -21 8 -17 23 51 169 35 77 66 148 70 160 4 15
32 31 94 56 83 34 93 36 213 37 91 1 130 -3 144 -13z m1111 -103 c7 -24 9 -43
4 -43 -14 0 -29 33 -35 81 -5 37 -4 41 6 25 7 -11 18 -39 25 -63z m-1652 -56
c-10 -31 -22 -53 -28 -51 -7 3 -19 -23 -29 -63 -28 -106 -42 -133 -70 -133
-13 0 -32 9 -41 19 -17 19 -16 22 18 84 20 36 33 67 29 70 -4 2 -57 -15 -117
-39 -117 -48 -137 -51 -156 -30 -24 30 -8 58 45 77 265 94 360 127 363 124 2
-2 -4 -28 -14 -58z m1021 -212 c22 -30 31 -55 36 -103 7 -64 7 -64 88 -146 76
-76 99 -116 68 -116 -7 0 -57 41 -109 90 -53 50 -99 90 -102 90 -3 0 -6 -18
-6 -40 0 -33 7 -48 41 -85 l41 -44 -22 -31 c-32 -45 -21 -123 26 -182 37 -47
42 -72 18 -106 -23 -33 -48 -27 -88 19 l-35 41 -3 317 c-2 174 -1 324 1 334 4
20 4 20 46 -38z m-113 -117 l4 -133 -63 -73 c-57 -66 -63 -77 -63 -118 0 -32
-4 -44 -14 -44 -15 0 -46 37 -46 55 0 5 29 44 65 85 36 41 68 84 71 96 3 11
-4 47 -16 80 -36 96 -36 98 5 143 21 23 41 41 45 41 4 0 10 -60 12 -132z
m-422 -198 l19 -38 -22 -41 c-34 -64 -97 -66 -97 -3 0 30 58 134 71 126 5 -3
18 -23 29 -44z m889 26 c26 -28 26 -73 -1 -90 -36 -22 -72 45 -52 98 9 23 27
20 53 -8z m225 -64 c10 -31 20 -63 23 -69 7 -18 -42 -17 -57 2 -18 22 -25 92
-10 110 19 23 24 19 44 -43z m-677 -457 c14 -38 22 -20 25 58 l3 57 32 -22
c38 -27 39 -32 13 -65 -15 -19 -20 -41 -20 -82 0 -65 -11 -81 -55 -81 -47 0
-69 30 -70 96 -1 47 -5 59 -33 87 -36 37 -43 81 -14 95 9 5 23 7 30 5 9 -4 12
15 12 74 l0 78 -58 -65 c-33 -36 -71 -78 -85 -95 -21 -24 -29 -28 -43 -19 -57
35 -46 92 21 109 48 12 165 127 165 162 0 12 12 36 28 54 l27 33 5 -225 c3
-123 11 -237 17 -254z"/>
<path d="M1420 3512 c0 -5 7 -15 15 -22 8 -7 15 -23 15 -35 0 -16 14 -32 49
-54 26 -17 57 -41 67 -52 10 -11 28 -25 39 -30 11 -6 -8 16 -43 48 -51 47 -62
64 -62 89 0 17 -6 36 -13 42 -18 15 -67 26 -67 14z"/>
<path d="M2800 2933 c-55 -84 -58 -93 -34 -93 29 0 74 41 99 91 30 59 32 79 5
79 -14 0 -35 -23 -70 -77z"/>
<path d="M1694 2691 c7 -11 46 -35 46 -28 0 3 -12 12 -26 22 -15 9 -23 12 -20
6z"/>
<path d="M1840 2615 c14 -8 30 -14 35 -14 6 0 -1 6 -15 14 -14 8 -29 14 -35
14 -5 0 1 -6 15 -14z"/>
<path d="M2765 2497 c-19 -15 -19 -16 10 -57 45 -65 107 -123 116 -109 10 16
-30 93 -73 142 -30 35 -35 37 -53 24z"/>
<path d="M2920 2414 c0 -8 5 -12 10 -9 6 3 10 10 10 16 0 5 -4 9 -10 9 -5 0
-10 -7 -10 -16z"/>
<path d="M2880 2275 c7 -9 15 -13 17 -11 7 7 -7 26 -19 26 -6 0 -6 -6 2 -15z"/>
<path d="M3171 2204 c13 -14 37 -35 52 -46 30 -21 167 -61 167 -49 0 4 -26 14
-57 21 -74 17 -101 31 -137 69 -17 17 -34 31 -40 31 -5 0 1 -12 15 -26z"/>
<path d="M1850 2321 c-50 -29 -92 -60 -102 -77 -23 -37 -23 -51 0 -32 22 21
180 70 201 64 30 -10 96 13 119 40 29 33 23 39 -21 23 -31 -11 -38 -10 -69 9
-20 12 -37 22 -39 21 -2 0 -42 -22 -89 -48z"/>
<path d="M2135 2330 c-10 -11 -29 -20 -42 -20 -17 0 -77 -55 -230 -210 -166
-169 -214 -212 -245 -220 -21 -6 -42 -19 -48 -30 -16 -30 -12 -35 13 -12 12
11 42 25 66 31 39 8 67 32 245 208 111 110 221 216 245 236 25 20 38 37 29 37
-8 0 -23 -9 -33 -20z"/>
<path d="M1644 1779 c-32 -28 -63 -55 -68 -60 -6 -5 7 -9 31 -9 32 0 43 4 48
19 3 11 17 36 31 56 14 21 23 39 21 41 -2 2 -30 -19 -63 -47z"/>
<path d="M3351 2635 c-59 -24 -101 -35 -136 -35 -59 0 -118 -17 -113 -32 2 -6
46 -30 98 -53 97 -43 178 -71 106 -36 l-39 19 39 12 c21 6 83 15 136 20 109
10 158 34 158 77 0 24 -42 49 -61 37 -5 -3 -19 2 -31 10 -33 23 -63 19 -157
-19z m155 6 c5 -5 25 -11 44 -13 23 -2 36 -9 38 -19 5 -25 -43 -37 -100 -26
-37 8 -65 5 -135 -11 -126 -30 -143 -31 -188 -17 -32 10 -37 14 -22 20 10 4
43 5 74 1 46 -5 71 -2 133 19 42 14 86 32 96 40 22 17 46 19 60 6z"/>
<path d="M2257 2143 c-4 -6 -2 -34 4 -62 10 -48 9 -53 -15 -82 -14 -17 -26
-34 -26 -37 0 -4 -2 -53 -3 -110 -4 -101 -4 -102 16 -85 34 31 77 95 77 116 0
15 -9 9 -36 -26 -20 -26 -38 -47 -40 -47 -2 0 -4 31 -4 70 0 62 3 73 29 102
28 33 28 33 17 103 -7 38 -15 64 -19 58z"/>
</g>
</svg>